<?xml version="1.0" encoding="UTF-8"?>
<svg width="66px" height="36px" viewBox="0 0 66 36" version="1.1" xmlns="http://www.w3.org/2000/svg" xmlns:xlink="http://www.w3.org/1999/xlink">
    <title>partner logos/Derbystar_positive</title>
    <g id="partner-logos/Derbystar_positive" stroke="none" stroke-width="1" fill="none" fill-rule="evenodd">
        <rect id="Rectangle" fill-opacity="0" fill="#FFFFFF" opacity="0" x="0" y="0" width="65" height="36"></rect>
        <g id="1---Fundamentals/1---Logos/Partners/Derbystar23/Positive" fill="#1D1D1B" fill-rule="nonzero">
            <path d="M4.00449438,23.9510204 L0,23.9510204 L0,35.8530612 L4.00449438,35.8530612 C6.89662921,35.8530612 6.97078652,32.4734694 6.97078652,29.9020408 C6.97078652,27.0367347 6.89662921,26.4489796 6.45168539,25.4938776 C6.00674157,24.5387755 5.19101124,23.9510204 4.00449438,23.9510204 Z M4.15280899,31.5918367 C4.15280899,32.4734694 4.07865169,33.4285714 3.33707865,33.4285714 L2.74382022,33.4285714 L2.74382022,26.3020408 L3.11460674,26.3020408 C4.00449438,26.3020408 4.07865169,26.8897959 4.07865169,28.1387755 L4.07865169,31.5918367 L4.15280899,31.5918367 Z M21.2831461,27.0367347 C21.2831461,25.0530612 20.4674157,23.9510204 18.5393258,23.9510204 L14.3865169,23.9510204 L14.3865169,35.8530612 L17.1303371,35.8530612 L17.1303371,31.1510204 L17.6494382,31.1510204 C18.1685393,31.1510204 18.3910112,31.2979592 18.3910112,32.3265306 C18.3910112,32.9142857 18.3910112,35.7795918 18.3910112,35.7795918 L21.1348315,35.7795918 L21.1348315,32.9142857 C21.1348315,32.1795918 21.1348315,31.444898 20.8382022,30.8571429 C20.541573,30.2693878 20.0966292,29.9755102 19.5033708,29.9020408 L19.5033708,29.9020408 C20.6157303,29.755102 21.2831461,28.9469388 21.2831461,27.0367347 Z M17.5752809,28.9469388 L17.2044944,28.9469388 L17.2044944,26.3020408 L17.5011236,26.3020408 C18.094382,26.3020408 18.5393258,26.522449 18.5393258,27.5510204 C18.5393258,28.6530612 18.0202247,28.9469388 17.5752809,28.9469388 Z M10.4561798,33.0612245 L13.6449438,33.0612245 L13.6449438,35.7795918 L7.71235955,35.7795918 L7.71235955,23.9510204 L13.6449438,23.9510204 L13.6449438,26.6693878 L10.4561798,26.6693878 L10.4561798,28.3591837 L13.4224719,28.3591837 L13.4224719,31.077551 L10.4561798,31.077551 L10.4561798,33.0612245 L10.4561798,33.0612245 Z M27.2157303,29.6081633 L27.2157303,29.6081633 C27.8089888,29.3877551 28.7730337,28.7265306 28.7730337,26.8897959 C28.7730337,24.9061224 27.7348315,23.9510204 26.0292135,23.9510204 L22.0247191,23.9510204 L22.0247191,35.8530612 L26.1775281,35.8530612 C27.8831461,35.8530612 28.9955056,34.8244898 28.9955056,32.4 C28.9955056,29.9755102 27.7348315,29.6816327 27.2157303,29.6081633 Z M24.7685393,26.3020408 L25.1393258,26.3020408 C25.7325843,26.3020408 25.9550562,26.6693878 25.9550562,27.477551 C25.9550562,28.3591837 25.5101124,28.5795918 25.1393258,28.5795918 L24.694382,28.5795918 L24.694382,26.3020408 L24.7685393,26.3020408 Z M25.2876404,33.4285714 L24.7685393,33.4285714 L24.7685393,30.7102041 L25.2876404,30.7102041 C25.9550562,30.7102041 26.1775281,31.3714286 26.1775281,32.1061224 C26.1775281,32.9142857 25.8808989,33.4285714 25.2876404,33.4285714 Z M52.5775281,23.9510204 L50.352809,35.8530612 L53.0966292,35.8530612 L53.3932584,34.0163265 L55.3955056,34.0163265 L55.6921348,35.8530612 L58.4359551,35.8530612 L56.211236,23.9510204 L52.5775281,23.9510204 L52.5775281,23.9510204 Z M53.7640449,31.3714286 L54.4314607,26.522449 L54.4314607,26.522449 L55.0988764,31.3714286 L53.7640449,31.3714286 Z M65.7033708,30.8571429 C65.4067416,30.2693878 64.9617978,29.9755102 64.3685393,29.9020408 L64.3685393,29.9020408 C65.3325843,29.755102 66,28.9469388 66,27.0367347 C66,25.0530612 65.1842697,23.9510204 63.2561798,23.9510204 L59.1033708,23.9510204 L59.1033708,35.8530612 L61.847191,35.8530612 L61.847191,31.1510204 L62.3662921,31.1510204 C62.8853933,31.1510204 63.1820225,31.2979592 63.1820225,32.3265306 C63.1820225,32.9142857 63.1820225,35.7795918 63.1820225,35.7795918 L65.9258427,35.7795918 L65.9258427,32.9142857 C66.0741573,32.2530612 66,31.444898 65.7033708,30.8571429 Z M62.3662921,28.9469388 L61.9955056,28.9469388 L61.9955056,26.3020408 L62.2921348,26.3020408 C62.8853933,26.3020408 63.3303371,26.522449 63.3303371,27.5510204 C63.3303371,28.6530612 62.811236,28.9469388 62.3662921,28.9469388 Z M51.3910112,26.6693878 L49.4629213,26.6693878 L49.4629213,35.8530612 L46.7191011,35.8530612 L46.7191011,26.6693878 L44.7910112,26.6693878 L44.7910112,23.9510204 L51.3910112,23.9510204 L51.3910112,26.6693878 Z M37.3752809,23.9510204 L34.4089888,31.1510204 L34.4089888,35.8530612 L31.6651685,35.8530612 L31.6651685,31.1510204 L28.6988764,23.9510204 L31.4426966,23.9510204 L33,28.0653061 L33,28.0653061 L34.5573034,23.9510204 L37.3752809,23.9510204 L37.3752809,23.9510204 Z M44.3460674,32.1795918 C44.3460674,34.8979592 43.2337079,36 40.4898876,36 C38.2651685,36 37.0044944,35.1183673 37.0044944,32.5469388 L37.0044944,31.6653061 L39.7483146,31.6653061 L39.7483146,32.7673469 C39.7483146,33.355102 40.0449438,33.7959184 40.5640449,33.7959184 C41.0831461,33.7959184 41.305618,33.2816327 41.305618,32.7673469 C41.305618,32.0326531 41.0831461,31.8122449 40.6382022,31.5918367 C40.2674157,31.3714286 39.6741573,31.077551 39.1550562,30.7836735 C37.5977528,29.9020408 37.0044944,29.2408163 37.0044944,27.477551 C37.0044944,25.8612245 37.4494382,24.9795918 38.1168539,24.3918367 C38.6359551,24.0244898 39.3775281,23.6571429 40.4898876,23.6571429 C43.4561798,23.6571429 43.9752809,25.2734694 43.9752809,27.2571429 L43.9752809,27.9183673 L41.2314607,27.9183673 L41.2314607,27.2571429 L41.2314607,26.7428571 C41.2314607,26.2285714 41.0089888,25.7877551 40.5640449,25.7877551 C40.1191011,25.7877551 39.8966292,26.2285714 39.8966292,26.6693878 C39.9707865,29.1673469 44.3460674,27.9183673 44.3460674,32.1795918 Z M30.0337079,14.9142857 L20.9865169,11.9020408 L30.0337079,8.88979592 L33,0 L36.0404494,8.96326531 L45.0876404,11.9755102 L36.0404494,14.9877551 L33,23.9510204 L30.0337079,14.9142857 Z" id="Shape"></path>
        </g>
    </g>
</svg>