<?xml version="1.0" encoding="UTF-8"?>
<svg width="70px" height="36px" viewBox="0 0 70 36" version="1.1" xmlns="http://www.w3.org/2000/svg" xmlns:xlink="http://www.w3.org/1999/xlink">
    <title>partner logos/Milka_positive</title>
    <g id="partner-logos/Milka_positive" stroke="none" stroke-width="1" fill="none" fill-rule="evenodd">
        <rect id="Rectangle" fill-opacity="0" fill="#FFFFFF" opacity="0" x="1.0658141e-13" y="0" width="70" height="36"></rect>
        <g id="g10" transform="translate(35, 18) scale(-1, 1) rotate(-180) translate(-35, -18)translate(0, 1)" fill="#735FB5" fill-rule="nonzero">
            <g id="g12">
                <path d="M32.4613388,21.0371228 C32.8882418,20.9986404 34.4815285,21.1312042 34.8372204,19.5503929 C36.3469431,21.0066525 36.0537425,22.923972 34.975646,23.6822079 C33.1623075,24.9575884 31.2297994,23.7917066 31.0546784,22.4726238 C30.9419276,21.6243125 31.4353184,21.1296261 32.4613388,21.0371228 M69.6187319,23.117355 C68.6171751,23.1520741 67.1380925,21.4979398 65.9294424,21.4935696 C65.132799,21.4906561 65.0735776,22.1013966 65.5507401,23.1246387 C67.3208433,26.9215238 65.17119,26.8004925 64.7101348,26.442983 C64.7101348,26.442983 66.2466222,29.1588417 63.5367269,29.1490086 C60.1975584,29.1367477 57.2347912,26.329114 55.6837709,22.1523826 C55.1175946,20.7303565 53.8697057,17.6907362 52.5579933,17.313075 C51.3017481,16.9712254 51.3058657,18.6219606 50.5030459,18.9207147 C55.8402414,22.5256736 55.9012795,25.4367362 55.0637019,26.4276871 C54.3046018,27.294572 51.782786,27.5694112 48.6522852,24.3275461 C49.4181674,27.2057105 51.5893777,28.975656 52.1106232,31.8706943 C52.3822668,33.5755719 51.1309869,35.3406615 48.7537731,32.503286 C47.1434103,30.5875446 46.3097081,27.0839509 44.755418,22.6093151 C43.8260411,19.8903001 41.9833946,14.9973356 40.3356097,14.9912658 C39.6169594,14.9887165 39.414347,15.6334477 39.6387587,17.4093415 C40.0644506,20.8897487 42.8576677,24.8921563 43.8345186,27.7711704 C44.5618886,29.6905537 43.8408162,30.8239015 43.0122005,31.0161919 C41.9038272,31.2251134 40.3294332,30.1722508 39.1592952,27.2923868 C38.2331882,25.3012589 37.4782058,22.5651271 36.922808,19.456797 C36.4072545,16.8635477 34.3641756,11.7716039 32.3777749,12.0306618 C31.6370831,12.1270619 32.3886745,13.9940023 33.2981898,15.8531734 C34.0707328,17.4321639 34.6799022,19.3392862 33.0489511,19.3420783 C30.5354917,19.3465699 28.6918764,14.1527875 28.3943159,10.2823368 C28.2497139,8.40046478 28.1858904,6.22288557 29.6386927,6.22832601 C31.4261143,6.23464879 33.749072,8.11276973 35.9217357,11.3866468 C36.0788117,9.56197632 38.4006795,7.13770944 42.8787404,13.6471756 C42.9451071,12.6548893 43.1693977,11.1838315 43.9178404,11.1379319 C43.9178404,11.1379319 44.6058506,10.9468797 45.3166289,12.5635999 C46.027165,14.1803443 46.8016457,16.2216086 46.9641716,16.6099526 C47.3433583,17.5164123 48.0512301,17.6869729 48.1174757,16.1406378 C48.1857802,14.5530283 48.6077178,13.3757354 49.8965409,13.3804698 C52.4271975,13.3896958 54.6208128,15.7147826 55.2504492,16.5927144 C55.6135287,15.221553 58.7200502,14.7358498 62.1046339,18.8422933 C62.2552913,17.754226 63.1972633,16.1720792 67.4591478,19.5009849 C70.1483338,21.5696845 70.3871572,23.090648 69.6187319,23.117355 M48.1683408,20.4535749 C48.0719394,20.4475051 47.9008149,20.5339387 47.9716626,20.7172458 C48.3117317,21.5960274 48.8604686,22.361547 49.5538075,22.9540781 C50.1681844,23.4788706 50.8260389,23.7940131 51.3133744,23.7971915 C51.7734607,23.8000829 52.0457098,23.5150464 52.0236683,23.053501 C52.0068344,22.6890719 51.7858137,22.2491348 51.3620595,21.8567848 C49.8573022,20.4635293 48.2958667,20.461587 48.1683408,20.4535749 M62.6625749,24.9187419 C61.206866,22.6586016 61.728596,22.392867 60.6629735,20.770417 C59.8062609,19.4657802 58.6173513,19.1259944 58.1740988,19.8030168 C57.7309675,20.4805247 58.1789431,21.9775732 59.1745656,23.1472182 C60.1705515,24.3169847 63.3233359,25.9444119 62.6625749,24.9187419 M25.7264448,9.98017146 C26.1314274,17.578324 30.2473776,23.8885802 30.3891942,26.5495682 C30.4462357,27.6206401 29.8777584,28.46361 28.5977761,28.4067969 C26.4380709,28.3108945 22.5764458,25.2176174 20.6447855,21.3251941 C19.5760142,24.6003216 16.9862573,22.6655212 15.7656175,21.2254071 C15.9941469,27.3799129 14.1157738,27.9070119 13.0187845,27.8584538 C9.59590669,27.7064667 6.02130575,23.0865205 4.08518872,19.7374632 C2.29507856,16.6409084 -2.26247708,7.41427253 1.36183837,6.86456971 C2.25855262,6.72848543 3.16685683,7.75502952 3.79358674,10.1262223 C6.15991297,19.0798641 8.98833595,21.1293833 10.136057,21.0423428 C13.1738017,20.8122984 9.250085,9.47106327 7.91048162,5.47483475 C7.16334691,3.34591084 6.52252012,-0.105229839 8.94855222,0.00246124267 C11.657188,0.122624054 12.7936462,6.96449029 13.4393899,10.6830753 C14.1703931,14.7560015 15.209372,16.0749629 16.2490776,15.9875582 C17.4681429,15.8413981 16.956586,13.3975865 16.1521918,11.0564634 C15.4280917,8.66885795 12.9455146,2.83462967 15.8662576,2.5801727 C18.8115854,2.47708369 18.682364,7.83099878 19.492208,11.204845 C20.7244741,16.2864337 22.1009788,19.7202251 23.5778815,19.4350672 C25.3972754,19.0484227 21.1462906,12.3815067 20.864474,7.09290239 C20.6459966,2.99267439 22.4934874,0.0192004837 25.1743169,1.1734533 C27.9978109,2.51753265 25.5079674,5.87994346 25.7264448,9.98017146" id="path14"></path>
            </g>
        </g>
    </g>
</svg>