<?xml version="1.0" encoding="UTF-8"?>
<svg width="64px" height="36px" viewBox="0 0 64 36" version="1.1" xmlns="http://www.w3.org/2000/svg" xmlns:xlink="http://www.w3.org/1999/xlink">
    <title>partner logos/easports-fc_positive</title>
    <g id="partner-logos/easports-fc_positive" stroke="none" stroke-width="1" fill="none" fill-rule="evenodd">
        <rect id="Rectangle" fill-opacity="0" fill="#FFFFFF" opacity="0" x="0" y="0" width="64" height="36"></rect>
        <path d="M15.8852691,3.26838433 C7.80762386,3.26838433 1.25928117,9.86402344 1.25928117,18.0000608 C1.25928117,26.1361389 7.80762386,32.7316562 15.8852691,32.7316562 C23.9629144,32.7316562 30.5112571,26.1361389 30.5112571,18.0000608 C30.5112571,9.86402344 23.9629144,3.26838433 15.8852691,3.26838433" id="Fill-1" fill="#FFFFFE" fill-rule="nonzero"></path>
        <polyline id="Fill-2" fill="#141514" fill-rule="nonzero" points="31.7778688 4.00235553 35.5589345 10.5717872 39.3597363 4.00235553 31.7778688 4.00235553"></polyline>
        <path d="M52.3706302,15.9151883 L47.8861151,23.666471 L47.2094503,22.4907459 L55.4748299,8.20483962 L56.8317841,8.20483962 L53.0513227,14.7386924 L57.8206012,14.7386924 L64,4.00235553 C64,4.00235553 56.0922864,4.00235553 54.7953457,4.00235553 C53.1169753,4.00235553 52.1269504,5.57837327 52.1269504,5.57837327 C52.1269504,5.57837327 43.3258779,20.799391 43.3194335,20.8016222 C42.8679209,21.7181126 42.8679209,23.2110048 43.3278918,24.0703337 C43.3363501,24.0879811 47.8889345,31.9948452 47.8889345,31.9948452 L57.1435335,15.9151883 L52.3706302,15.9151883" id="Fill-3" fill="#141514" fill-rule="nonzero"></path>
        <path d="M39.9558055,13.5838197 L46.1384672,13.5838197 L48.5809048,9.36210592 L42.3958667,9.36210592 L43.0761564,8.18638077 L49.2611945,8.18638077 L51.6818822,4.00235553 C51.6818822,4.00235553 44.1709033,4.00235553 42.5626162,4.00235553 C40.8242322,4.00235553 39.8024281,5.58255186 39.8024281,5.58255186 L36.2355993,11.7475123 L38.6206814,15.8914962 L39.9558055,13.5838197" id="Fill-4" fill="#141514" fill-rule="nonzero"></path>
        <path d="M10.9733677,21.1312845 L9.93883589,21.1312845 L9.93883589,22.4721248 L10.9733677,22.4721248 C11.0608911,22.4721248 11.1358478,22.4381281 11.1917935,22.3719603 C11.2485447,22.3036425 11.2781488,22.2208009 11.2781488,22.1166607 L11.2781488,21.4859778 C11.2781488,21.3806205 11.2485447,21.2983064 11.1917935,21.2312867 C11.1358478,21.1638207 11.0608911,21.1312845 10.9733677,21.1312845" id="Fill-5" fill="#141514" fill-rule="nonzero"></path>
        <path d="M18.3485705,21.1312845 L17.3554039,21.1312845 L17.3554039,22.3676195 L18.3485705,22.3676195 C18.4362953,22.3676195 18.509077,22.3353267 18.564056,22.2719582 C18.6189545,22.2056282 18.6450947,22.1212856 18.6450947,22.0184436 L18.6450947,21.4859778 C18.6450947,21.3829735 18.6189545,21.2983064 18.564056,21.2312867 C18.509077,21.1638207 18.4362953,21.1312845 18.3485705,21.1312845" id="Fill-6" fill="#141514" fill-rule="nonzero"></path>
        <path d="M14.6102394,21.1312845 L13.8829859,21.1312845 C13.7881723,21.1312845 13.7153905,21.1638207 13.6583171,21.2312867 C13.603338,21.2983064 13.5770368,21.3829735 13.5770368,21.4859778 L13.5770368,23.7013196 C13.5770368,23.8018086 13.603338,23.8854615 13.6583171,23.952968 C13.7153905,24.022787 13.7881723,24.0586498 13.8829859,24.0586498 L14.6102394,24.0586498 C14.6979642,24.0586498 14.7717528,24.022787 14.8276582,23.952968 C14.8869067,23.8854615 14.9152219,23.8018086 14.9152219,23.7013196 L14.9152219,21.4859778 C14.9152219,21.3829735 14.8869067,21.2983064 14.8276582,21.2312867 C14.7717528,21.1638207 14.6979642,21.1312845 14.6102394,21.1312845" id="Fill-7" fill="#141514" fill-rule="nonzero"></path>
        <path d="M27.2196858,20.993959 L27.2196858,20.7356168 C27.2196858,20.7244603 27.2196858,20.7112755 27.2218205,20.6901391 C27.2145705,20.7069752 27.2122344,20.721296 27.2018025,20.7356168 L27.0697723,20.9407733 L27.0570043,20.9407733 L26.9219936,20.7321279 C26.9147033,20.7208092 26.9052784,20.7046222 26.8966589,20.6901391 C26.8966589,20.7069752 26.9052784,20.7208092 26.9052784,20.7356168 L26.9052784,20.993959 L26.8354771,20.993959 L26.8354771,20.5756133 L26.9052784,20.5756133 L27.0677584,20.8284382 L27.2314469,20.5756133 L27.2946426,20.5756133 L27.2946426,20.993959 L27.2196858,20.993959 Z M26.7373205,20.6474607 L26.5760085,20.6474607 L26.5760085,20.993959 L26.494567,20.993959 L26.494567,20.6474607 L26.3330938,20.6474607 L26.3330938,20.5756133 L26.7373205,20.5756133 L26.7373205,20.6474607 Z M26.2741676,23.834142 C26.2741676,24.0902935 26.1854762,24.3079858 26.0091003,24.4849877 C25.8297036,24.6649915 25.6142584,24.7553383 25.3599452,24.7553383 L24.2867066,24.7553383 C24.0302184,24.7553383 23.8190829,24.6686427 23.6450028,24.496996 C23.4740644,24.3248219 23.3873466,24.1118356 23.3873466,23.8501667 L23.3873466,23.420989 L24.0481017,23.420989 L24.1471847,23.8184824 C24.1937054,23.982137 24.3045898,24.0668042 24.4872491,24.0668042 L25.2143415,24.0668042 C25.3063356,24.0668042 25.382259,24.0338217 25.4380436,23.9648141 C25.4919754,23.8993361 25.5193239,23.8118291 25.5193239,23.7121515 L25.5193239,23.2396464 C25.5193239,23.0079984 25.4190325,22.8896592 25.2143415,22.8896592 L24.3004413,22.8896592 C24.0481017,22.8896592 23.8304815,22.8016248 23.6554347,22.6217832 C23.4793811,22.4412925 23.3873466,22.2246549 23.3873466,21.9701261 L23.3873466,21.3461371 C23.3873466,21.0959896 23.4793811,20.8809343 23.6554347,20.7026343 C23.8304815,20.5227927 24.0481017,20.4337847 24.3004413,20.4337847 L25.3599452,20.4337847 C25.6142584,20.4337847 25.8254342,20.5197906 26.000642,20.6909505 C26.1725873,20.8637737 26.2602718,21.0762732 26.2602718,21.3353051 L26.2602718,21.7231431 L25.6007251,21.7231431 L25.5014406,21.3712897 C25.4486366,21.2039433 25.3356175,21.1217914 25.1668541,21.1217914 L24.4470117,21.1217914 C24.3552189,21.1217914 24.2782483,21.1553013 24.2243165,21.2231324 C24.1693777,21.2911257 24.1409014,21.375306 24.1409014,21.4791217 L24.1409014,21.8428212 C24.1409014,22.0694386 24.2443345,22.1829908 24.4470117,22.1829908 L25.3599452,22.1829908 C25.6099487,22.1829908 25.8244272,22.2737838 26.000642,22.4561406 C26.1854762,22.638457 26.2741676,22.8529849 26.2741676,23.1031323 L26.2741676,23.834142 Z M22.8353412,21.1312845 L21.7344721,21.1312845 L21.7344721,24.7553383 L20.9746339,24.7553383 L20.9746339,21.1312845 L19.8843176,21.1312845 L19.8843176,20.4337847 L22.8353412,20.4337847 L22.8353412,21.1312845 Z M18.7738624,24.7553383 L18.0752463,23.0639834 L17.3554039,23.0639834 L17.3554039,24.7553383 L16.5965727,24.7553383 L16.5965727,20.4337847 L18.4933687,20.4337847 C18.7476819,20.4337847 18.962966,20.5227927 19.1392211,20.7026343 C19.3164428,20.8791087 19.406262,21.0959896 19.406262,21.3437841 L19.406262,22.0973094 C19.406262,22.2929728 19.3524913,22.4721248 19.2457555,22.6294507 C19.1339044,22.7854784 18.9926104,22.8963124 18.8277942,22.9696203 L19.5803421,24.7553383 L18.7738624,24.7553383 Z M15.8610622,19.4044319 L5.51973164,19.4067849 L8.03491071,15.4042646 L6.18890476,15.4042646 L7.44484293,13.4037346 L15.1359435,13.4037346 L13.8788775,15.4042646 L10.4307873,15.4042646 L9.15680475,17.4067418 L14.7085572,17.4067418 L19.7840262,9.33524936 L26.1019404,19.4044319 L23.7177846,19.4044319 L22.4626923,17.4056059 L18.7275028,17.4056059 L19.9836021,15.4012624 L21.2079222,15.4012624 L19.7840262,13.128394 L15.8610622,19.4044319 Z M15.6719183,23.8274481 C15.6719183,24.0902935 15.5855227,24.3079858 15.4028636,24.4849877 C15.2234668,24.6649915 15.0124924,24.7553383 14.7570112,24.7553383 L13.7321058,24.7553383 C13.4767856,24.7553383 13.2604946,24.6649915 13.0821048,24.4849877 C12.9045609,24.3079858 12.8138958,24.0902935 12.8138958,23.8274481 L12.8138958,21.3437841 C12.8138958,21.0959896 12.9045609,20.8791087 13.0821048,20.7026343 C13.2604946,20.5227927 13.4767856,20.4337847 13.7321058,20.4337847 L14.7570112,20.4337847 C15.0124924,20.4337847 15.2234668,20.5227927 15.4028636,20.6997945 C15.5855227,20.8737942 15.6719183,21.0931093 15.6719183,21.3437841 L15.6719183,23.8274481 Z M12.0371814,22.2517955 C12.0371814,22.5057969 11.9473219,22.7216231 11.7711071,22.9002882 C11.5895757,23.0786288 11.3723179,23.1693001 11.1211062,23.1693001 L9.93883589,23.1693001 L9.93883589,24.7553383 L9.18113246,24.7553383 L9.18113246,20.4337847 L11.1211062,20.4337847 C11.3723179,20.4337847 11.5895757,20.5227927 11.7711071,20.7026343 C11.9473219,20.8791087 12.0371814,21.0949754 12.0371814,21.3437841 L12.0371814,22.2517955 Z M8.29236555,23.834142 C8.29236555,24.0902935 8.20468107,24.3079858 8.02963435,24.4849877 C7.85225148,24.6649915 7.63479238,24.7553383 7.38575557,24.7553383 L6.30820723,24.7553383 C6.05272598,24.7553383 5.83860993,24.6686427 5.66751043,24.496996 C5.49540398,24.3248219 5.41118335,24.1118356 5.41118335,23.8501667 L5.41118335,23.420989 L6.07274401,23.420989 L6.17005486,23.8184824 C6.21423943,23.982137 6.32625162,24.0668042 6.50975663,24.0668042 L7.23817823,24.0668042 C7.32868212,24.0668042 7.40263195,24.0338217 7.4607123,23.9648141 C7.51468436,23.8993361 7.54211346,23.8118291 7.54211346,23.7121515 L7.54211346,23.2396464 C7.54211346,23.0079984 7.4405332,22.8896592 7.23817823,22.8896592 L6.32278772,22.8896592 C6.07274401,22.8896592 5.85532518,22.8016248 5.67496178,22.6217832 C5.49971367,22.4412925 5.41118335,22.2246549 5.41118335,21.9701261 L5.41118335,21.3461371 C5.41118335,21.0959896 5.49971367,20.8809343 5.67496178,20.7026343 C5.85532518,20.5227927 6.07274401,20.4337847 6.32278772,20.4337847 L7.38575557,20.4337847 C7.63479238,20.4337847 7.8479418,20.5197906 8.02331071,20.6909505 C8.19642411,20.8637737 8.28064474,21.0762732 8.28064474,21.3353051 L8.28064474,21.7231431 L7.62319243,21.7231431 L7.52394826,21.3712897 C7.4723123,21.2039433 7.35727925,21.1217914 7.18835473,21.1217914 L6.47052624,21.1217914 C6.37671951,21.1217914 6.30272947,21.1553013 6.24783099,21.2231324 C6.18890476,21.2911257 6.16361042,21.375306 6.16361042,21.4791217 L6.16361042,21.8428212 C6.16361042,22.0694386 6.26486843,22.1829908 6.47052624,22.1829908 L7.38575557,22.1829908 C7.63281875,22.1829908 7.84709597,22.2737838 8.02548573,22.4561406 C8.20468107,22.638457 8.29236555,22.8529849 8.29236555,23.1031323 L8.29236555,23.834142 Z M9.94842199,9.40454092 L18.1142753,9.40454092 L16.862647,11.4000809 L8.69977409,11.4047057 L9.94842199,9.40454092 Z M15.8852691,2 C7.11214939,2 0,9.16356211 0,18.0000608 C0,26.8366408 7.11214939,34 15.8852691,34 C24.6583888,34 31.7705383,26.8366408 31.7705383,18.0000608 C31.7705383,9.16356211 24.6583888,2 15.8852691,2 L15.8852691,2 Z" id="Fill-8" fill="#141514" fill-rule="nonzero"></path>
    </g>
</svg>