<?xml version="1.0" encoding="UTF-8"?>
<svg width="50px" height="36px" viewBox="0 0 50 36" version="1.1" xmlns="http://www.w3.org/2000/svg" xmlns:xlink="http://www.w3.org/1999/xlink">
    <title>partner logos/aws_positive</title>
    <g id="partner-logos/aws_positive" stroke="none" stroke-width="1" fill="none" fill-rule="evenodd">
        <rect id="Rectangle" fill-opacity="0" fill="#FFFFFF" opacity="0" x="0" y="0" width="50" height="36"></rect>
        <path d="M14.0945838,13.8340321 C14.0786983,14.3376346 14.1428554,14.8405576 14.28463,15.3237915 C14.4307536,15.7377007 14.6114429,16.1384146 14.8247613,16.5216385 C14.8974306,16.6363322 14.9388267,16.768252 14.9447905,16.9041443 C14.9234169,17.1108926 14.8042281,17.2945592 14.6247127,17.3973754 L13.6244695,18.1019914 C13.4950533,18.1934809 13.3423613,18.2458655 13.1843625,18.2529805 C12.9964741,18.2462102 12.8194621,18.1625954 12.6942433,18.0214638 C12.4619144,17.7901447 12.2602019,17.5296366 12.0940974,17.2463864 C11.9273902,16.96454 11.7573488,16.6290085 11.5839734,16.2397921 C10.3968227,17.7308651 8.59113443,18.5855589 6.6927842,18.5549588 C5.47067357,18.622355 4.27327388,18.1904414 3.37197683,17.3571117 C2.53643329,16.5017877 2.09403296,15.3340255 2.15168014,14.1360103 C2.09797456,12.8314458 2.63505972,11.5727579 3.61203519,10.7135901 C4.77020202,9.79574807 6.22105134,9.33411095 7.69302739,9.41508367 C8.28217125,9.41680834 8.8704534,9.46053691 9.45345539,9.54594091 C10.0669379,9.63317904 10.7037594,9.75397035 11.3639199,9.90831477 L11.3639199,8.6802699 C11.4610552,7.7178731 11.1771162,6.75575488 10.5737278,6.0027294 C9.80176626,5.40532884 8.83183876,5.12799075 7.86306873,5.22765188 C7.25970353,5.23072854 6.65878175,5.3050538 6.07263343,5.4491026 C5.4626432,5.59589483 4.86421517,5.78766567 4.28219813,6.02286128 C4.09404893,6.1098736 3.90021823,6.18386241 3.70205708,6.244312 L3.44199385,6.244312 C3.20860378,6.244312 3.09190874,6.06983567 3.09190874,5.72088303 L3.09190874,4.92567363 C3.07760501,4.72364674 3.11914856,4.52157801 3.21193792,4.34184901 C3.33730371,4.18712063 3.49882436,4.06607558 3.68205222,3.98954105 C4.35148054,3.66680377 5.05196377,3.41383812 5.77256047,3.23459541 C6.61881584,3.01592892 7.48949765,2.90767129 8.36319032,2.91248528 C9.93465007,2.77232768 11.4977528,3.26050864 12.7142482,4.27138741 C13.7136411,5.39647978 14.2123533,6.88393195 14.0945838,8.38835761 L14.0945838,13.8340321 Z M7.34294227,16.3807154 C7.92951713,16.3721233 8.51071431,16.2667076 9.06336055,16.0686712 C9.67255622,15.8563243 10.2145834,15.4845717 10.6337423,14.9916154 C10.8919863,14.7017978 11.0832748,14.3580423 11.1938785,13.9850212 C11.3090382,13.5108093 11.3628299,13.0236108 11.3539174,12.5355256 L11.3539174,11.8309097 C10.8492317,11.7091875 10.3383575,11.6151006 9.82354537,11.5490633 C9.30604786,11.4824377 8.78488109,11.4488174 8.263166,11.4484039 C7.38722916,11.3822975 6.51524029,11.6203307 5.79256534,12.122822 C5.26395182,12.5921347 4.973676,13.2762106 5.00237322,13.9850212 C4.95457901,14.6349251 5.1753275,15.2758829 5.61252156,15.756627 C6.08420432,16.1874596 6.70670171,16.4119676 7.34294227,16.3807154 Z M20.6961888,18.1925849 C20.4708439,18.2133162 20.2451725,18.1565401 20.0560331,18.0315298 C19.878962,17.8520621 19.7573632,17.6248018 19.705948,17.3772436 L15.815002,4.43244248 C15.739508,4.21415549 15.6891662,3.98786788 15.6649656,3.75802439 C15.6477676,3.64413484 15.685403,3.5288012 15.7663457,3.44734457 C15.8472883,3.36588794 15.9618943,3.32801366 16.0750653,3.34532077 L17.7054617,3.34532077 C17.934131,3.32224725 18.163721,3.37912054 18.3556197,3.50637584 C18.5211282,3.69131197 18.6350158,3.91706033 18.6857,4.16066206 L21.4763785,15.233198 L24.0670083,4.16066206 C24.1070032,3.91634166 24.2225016,3.69092249 24.3970886,3.51644178 C24.5975811,3.3919372 24.832491,3.33548313 25.0672515,3.35538672 L26.4075774,3.35538672 C26.6423379,3.33548313 26.8772477,3.3919372 27.0777403,3.51644178 C27.2505352,3.69496308 27.3626026,3.92404521 27.3978181,4.170728 L30.0084528,15.3841871 L32.8891532,4.170728 C32.9422521,3.92592181 33.0597031,3.69995739 33.2292359,3.51644178 C33.4211347,3.38918648 33.6507246,3.3323132 33.879394,3.35538672 L35.4197685,3.35538672 C35.5329394,3.3380796 35.6475454,3.37595389 35.7284881,3.45741051 C35.8094308,3.53886714 35.8470661,3.65420079 35.8298682,3.76809033 C35.8381735,3.8551283 35.8381735,3.94276684 35.8298682,4.02980481 C35.7979216,4.16961882 35.7578428,4.30742396 35.709839,4.44250842 L31.7088662,17.3873095 C31.6574511,17.6348677 31.5358522,17.862128 31.3587811,18.0415957 C31.1696418,18.1666061 30.9439704,18.2233821 30.7186255,18.2026508 L29.2582704,18.2026508 C29.0217722,18.2275904 28.7841809,18.1669232 28.5881075,18.0315298 C28.4165235,17.8441806 28.3049871,17.6091684 28.2680297,17.3571117 L25.6773998,6.57648808 L23.1167773,17.3470458 C23.0798199,17.5991025 22.9682834,17.8341147 22.7966995,18.0214638 C22.6006261,18.1568573 22.3630348,18.2175244 22.1265365,18.1925849 L20.6961888,18.1925849 Z M42.0613832,18.6354863 C41.1995652,18.6369176 40.3404219,18.5389748 39.5007607,18.343574 C38.8329495,18.2082835 38.1867594,17.9813583 37.5802937,17.6691559 C37.2073317,17.5102096 36.9664324,17.1406048 36.9700617,16.7330233 L36.9700617,15.8874842 C36.9700617,15.5385315 37.0968429,15.3640552 37.3502378,15.3640552 C37.4563253,15.3656411 37.561299,15.3860877 37.6603132,15.4244509 L38.0804153,15.5955719 C38.6674966,15.8569996 39.2813214,16.0527804 39.9108604,16.1793965 C40.5690489,16.3154657 41.2394172,16.3829283 41.9113467,16.3807154 C42.7572629,16.431164 43.600055,16.2391974 44.3419377,15.8270885 C44.8933494,15.4973464 45.2229091,14.8918881 45.2021468,14.2467357 C45.2136574,13.812545 45.0514966,13.3918763 44.7520374,13.0790864 C44.2471491,12.6532954 43.6516273,12.3501996 43.0116142,12.1932836 L40.6010282,11.428272 C39.5859662,11.1444374 38.6817885,10.5542198 38.0103983,9.73719379 C37.4742138,9.04347087 37.1821915,8.19016686 37.1801965,7.31130182 C37.1662465,6.66168328 37.3214205,6.01969503 37.6303059,5.4491026 C37.9292027,4.91235986 38.3343124,4.4430118 38.8205953,4.07006858 C39.3304336,3.67994875 39.9066519,3.38659925 40.5210087,3.20439759 C41.2004116,3.00710162 41.9044025,2.90879843 42.611517,2.91229058 C42.9860446,2.91229058 43.3602174,2.93568758 43.7317893,2.98294687 C44.1118817,3.02992126 44.4719693,3.09367223 44.812052,3.17419976 C45.1521346,3.25472729 45.4688783,3.34196546 45.762283,3.43591425 C46.0038075,3.51214641 46.2381199,3.609835 46.4624532,3.72782656 C46.6518912,3.83060487 46.8186299,3.97100679 46.9525724,4.14053017 C47.0583266,4.30499323 47.1107504,4.4984342 47.1026089,4.69415697 L47.1026089,5.48936636 C47.1026089,5.83831902 46.9759114,6.01279534 46.7225164,6.01279534 C46.4982832,5.98759276 46.2809546,5.91924637 46.0823608,5.81147651 C45.0730552,5.37025535 43.9818791,5.15063448 42.8815826,5.16725623 C42.116266,5.12721936 41.3539396,5.29037246 40.6710452,5.64035549 C40.1493242,5.94702102 39.8436922,6.52323309 39.8808531,7.13011487 C39.870769,7.5778256 40.0487144,8.00906793 40.3709722,8.31789597 C40.9101305,8.7518871 41.53368,9.06735592 42.2014173,9.24396263 L44.5619912,9.9586445 C45.5616016,10.2201042 46.4583041,10.7819072 47.1326161,11.5691952 C47.6614623,12.2599761 47.9370565,13.1133425 47.9128058,13.9850212 C47.9216216,14.6585942 47.770749,15.3245782 47.4726988,15.9277479 C47.1814141,16.5039601 46.7683126,17.0090138 46.2624046,17.4074414 C45.7109652,17.8360436 45.0827286,18.1538651 44.4119547,18.343574 C43.6464545,18.5541137 42.8547787,18.6524302 42.0613832,18.6354863 Z" id="Shape" fill="#252F3E" fill-rule="nonzero"></path>
        <path d="M45.2021468,26.8794926 C39.7308166,30.9461331 31.7888857,33.1103106 25.0072369,33.1103106 C15.8574527,33.1709474 7.01607318,29.7850076 0.221210798,23.6181275 C-0.288913226,23.1550942 0.161196207,22.5209398 0.781346981,22.8732478 C8.31911629,27.2124375 16.8534924,29.492311 25.5373658,29.4865715 C32.022413,29.451512 38.4367083,28.1276679 44.4119547,25.5910521 C45.3321784,25.1984803 46.1123681,26.2050745 45.2021468,26.8794926 Z" id="Path" fill="#FF9900" fill-rule="nonzero"></path>
        <path d="M47.4827013,24.2623477 C46.782531,23.356413 42.8515753,23.8395782 41.0911473,24.050963 C40.5610184,24.1113586 40.4709965,23.6483253 40.9511133,23.3060833 C44.0818744,21.0915761 49.2231244,21.7257304 49.8132679,22.4706101 C50.4034114,23.2154898 49.653229,28.3994498 46.7225164,30.8756715 C46.272407,31.2581773 45.8423024,31.0568584 46.0423511,30.5535613 C46.7025116,28.882615 48.1828715,25.1682825 47.4827013,24.2623477 Z" id="Path" fill="#FF9900" fill-rule="nonzero"></path>
        <path d="M14.0945838,13.8340321 C14.0786983,14.3376346 14.1428554,14.8405576 14.28463,15.3237915 C14.4307536,15.7377007 14.6114429,16.1384146 14.8247613,16.5216385 C14.8974306,16.6363322 14.9388267,16.768252 14.9447905,16.9041443 C14.9234169,17.1108926 14.8042281,17.2945592 14.6247127,17.3973754 L13.6244695,18.1019914 C13.4950533,18.1934809 13.3423613,18.2458655 13.1843625,18.2529805 C12.9964741,18.2462102 12.8194621,18.1625954 12.6942433,18.0214638 C12.4619144,17.7901447 12.2602019,17.5296366 12.0940974,17.2463864 C11.9273902,16.96454 11.7573488,16.6290085 11.5839734,16.2397921 C10.3968227,17.7308651 8.59113443,18.5855589 6.6927842,18.5549588 C5.47067357,18.622355 4.27327388,18.1904414 3.37197683,17.3571117 C2.53643329,16.5017877 2.09403296,15.3340255 2.15168014,14.1360103 C2.09797456,12.8314458 2.63505972,11.5727579 3.61203519,10.7135901 C4.77020202,9.79574807 6.22105134,9.33411095 7.69302739,9.41508367 C8.28217125,9.41680834 8.8704534,9.46053691 9.45345539,9.54594091 C10.0669379,9.63317904 10.7037594,9.75397035 11.3639199,9.90831477 L11.3639199,8.6802699 C11.4610552,7.7178731 11.1771162,6.75575488 10.5737278,6.0027294 C9.80176626,5.40532884 8.83183876,5.12799075 7.86306873,5.22765188 C7.25970353,5.23072854 6.65878175,5.3050538 6.07263343,5.4491026 C5.4626432,5.59589483 4.86421517,5.78766567 4.28219813,6.02286128 C4.09404893,6.1098736 3.90021823,6.18386241 3.70205708,6.244312 L3.44199385,6.244312 C3.20860378,6.244312 3.09190874,6.06983567 3.09190874,5.72088303 L3.09190874,4.92567363 C3.07760501,4.72364674 3.11914856,4.52157801 3.21193792,4.34184901 C3.33730371,4.18712063 3.49882436,4.06607558 3.68205222,3.98954105 C4.35148054,3.66680377 5.05196377,3.41383812 5.77256047,3.23459541 C6.61881584,3.01592892 7.48949765,2.90767129 8.36319032,2.91248528 C9.93465007,2.77232768 11.4977528,3.26050864 12.7142482,4.27138741 C13.7136411,5.39647978 14.2123533,6.88393195 14.0945838,8.38835761 L14.0945838,13.8340321 Z M7.34294227,16.3807154 C7.92951713,16.3721233 8.51071431,16.2667076 9.06336055,16.0686712 C9.67255622,15.8563243 10.2145834,15.4845717 10.6337423,14.9916154 C10.8919863,14.7017978 11.0832748,14.3580423 11.1938785,13.9850212 C11.3090382,13.5108093 11.3628299,13.0236108 11.3539174,12.5355256 L11.3539174,11.8309097 C10.8492317,11.7091875 10.3383575,11.6151006 9.82354537,11.5490633 C9.30604786,11.4824377 8.78488109,11.4488174 8.263166,11.4484039 C7.38722916,11.3822975 6.51524029,11.6203307 5.79256534,12.122822 C5.26395182,12.5921347 4.973676,13.2762106 5.00237322,13.9850212 C4.95457901,14.6349251 5.1753275,15.2758829 5.61252156,15.756627 C6.08420432,16.1874596 6.70670171,16.4119676 7.34294227,16.3807154 Z M20.6961888,18.1925849 C20.4708439,18.2133162 20.2451725,18.1565401 20.0560331,18.0315298 C19.878962,17.8520621 19.7573632,17.6248018 19.705948,17.3772436 L15.815002,4.43244248 C15.739508,4.21415549 15.6891662,3.98786788 15.6649656,3.75802439 C15.6477676,3.64413484 15.685403,3.5288012 15.7663457,3.44734457 C15.8472883,3.36588794 15.9618943,3.32801366 16.0750653,3.34532077 L17.7054617,3.34532077 C17.934131,3.32224725 18.163721,3.37912054 18.3556197,3.50637584 C18.5211282,3.69131197 18.6350158,3.91706033 18.6857,4.16066206 L21.4763785,15.233198 L24.0670083,4.16066206 C24.1070032,3.91634166 24.2225016,3.69092249 24.3970886,3.51644178 C24.5975811,3.3919372 24.832491,3.33548313 25.0672515,3.35538672 L26.4075774,3.35538672 C26.6423379,3.33548313 26.8772477,3.3919372 27.0777403,3.51644178 C27.2505352,3.69496308 27.3626026,3.92404521 27.3978181,4.170728 L30.0084528,15.3841871 L32.8891532,4.170728 C32.9422521,3.92592181 33.0597031,3.69995739 33.2292359,3.51644178 C33.4211347,3.38918648 33.6507246,3.3323132 33.879394,3.35538672 L35.4197685,3.35538672 C35.5329394,3.3380796 35.6475454,3.37595389 35.7284881,3.45741051 C35.8094308,3.53886714 35.8470661,3.65420079 35.8298682,3.76809033 C35.8381735,3.8551283 35.8381735,3.94276684 35.8298682,4.02980481 C35.7979216,4.16961882 35.7578428,4.30742396 35.709839,4.44250842 L31.7088662,17.3873095 C31.6574511,17.6348677 31.5358522,17.862128 31.3587811,18.0415957 C31.1696418,18.1666061 30.9439704,18.2233821 30.7186255,18.2026508 L29.2582704,18.2026508 C29.0217722,18.2275904 28.7841809,18.1669232 28.5881075,18.0315298 C28.4165235,17.8441806 28.3049871,17.6091684 28.2680297,17.3571117 L25.6773998,6.57648808 L23.1167773,17.3470458 C23.0798199,17.5991025 22.9682834,17.8341147 22.7966995,18.0214638 C22.6006261,18.1568573 22.3630348,18.2175244 22.1265365,18.1925849 L20.6961888,18.1925849 Z M42.0613832,18.6354863 C41.1995652,18.6369176 40.3404219,18.5389748 39.5007607,18.343574 C38.8329495,18.2082835 38.1867594,17.9813583 37.5802937,17.6691559 C37.2073317,17.5102096 36.9664324,17.1406048 36.9700617,16.7330233 L36.9700617,15.8874842 C36.9700617,15.5385315 37.0968429,15.3640552 37.3502378,15.3640552 C37.4563253,15.3656411 37.561299,15.3860877 37.6603132,15.4244509 L38.0804153,15.5955719 C38.6674966,15.8569996 39.2813214,16.0527804 39.9108604,16.1793965 C40.5690489,16.3154657 41.2394172,16.3829283 41.9113467,16.3807154 C42.7572629,16.431164 43.600055,16.2391974 44.3419377,15.8270885 C44.8933494,15.4973464 45.2229091,14.8918881 45.2021468,14.2467357 C45.2136574,13.812545 45.0514966,13.3918763 44.7520374,13.0790864 C44.2471491,12.6532954 43.6516273,12.3501996 43.0116142,12.1932836 L40.6010282,11.428272 C39.5859662,11.1444374 38.6817885,10.5542198 38.0103983,9.73719379 C37.4742138,9.04347087 37.1821915,8.19016686 37.1801965,7.31130182 C37.1662465,6.66168328 37.3214205,6.01969503 37.6303059,5.4491026 C37.9292027,4.91235986 38.3343124,4.4430118 38.8205953,4.07006858 C39.3304336,3.67994875 39.9066519,3.38659925 40.5210087,3.20439759 C41.2004116,3.00710162 41.9044025,2.90879843 42.611517,2.91229058 C42.9860446,2.91229058 43.3602174,2.93568758 43.7317893,2.98294687 C44.1118817,3.02992126 44.4719693,3.09367223 44.812052,3.17419976 C45.1521346,3.25472729 45.4688783,3.34196546 45.762283,3.43591425 C46.0038075,3.51214641 46.2381199,3.609835 46.4624532,3.72782656 C46.6518912,3.83060487 46.8186299,3.97100679 46.9525724,4.14053017 C47.0583266,4.30499323 47.1107504,4.4984342 47.1026089,4.69415697 L47.1026089,5.48936636 C47.1026089,5.83831902 46.9759114,6.01279534 46.7225164,6.01279534 C46.4982832,5.98759276 46.2809546,5.91924637 46.0823608,5.81147651 C45.0730552,5.37025535 43.9818791,5.15063448 42.8815826,5.16725623 C42.116266,5.12721936 41.3539396,5.29037246 40.6710452,5.64035549 C40.1493242,5.94702102 39.8436922,6.52323309 39.8808531,7.13011487 C39.870769,7.5778256 40.0487144,8.00906793 40.3709722,8.31789597 C40.9101305,8.7518871 41.53368,9.06735592 42.2014173,9.24396263 L44.5619912,9.9586445 C45.5616016,10.2201042 46.4583041,10.7819072 47.1326161,11.5691952 C47.6614623,12.2599761 47.9370565,13.1133425 47.9128058,13.9850212 C47.9216216,14.6585942 47.770749,15.3245782 47.4726988,15.9277479 C47.1814141,16.5039601 46.7683126,17.0090138 46.2624046,17.4074414 C45.7109652,17.8360436 45.0827286,18.1538651 44.4119547,18.343574 C43.6464545,18.5541137 42.8547787,18.6524302 42.0613832,18.6354863 Z" id="Shape" fill="#000000" fill-rule="nonzero"></path>
        <path d="M45.2021468,26.8794926 C39.7308166,30.9461331 31.7888857,33.1103106 25.0072369,33.1103106 C15.8574527,33.1709474 7.01607318,29.7850076 0.221210798,23.6181275 C-0.288913226,23.1550942 0.161196207,22.5209398 0.781346981,22.8732478 C8.31911629,27.2124375 16.8534924,29.492311 25.5373658,29.4865715 C32.022413,29.451512 38.4367083,28.1276679 44.4119547,25.5910521 C45.3321784,25.1984803 46.1123681,26.2050745 45.2021468,26.8794926 Z" id="Path" fill="#FF9900" fill-rule="nonzero"></path>
        <path d="M47.4827013,24.2623477 C46.782531,23.356413 42.8515753,23.8395782 41.0911473,24.050963 C40.5610184,24.1113586 40.4709965,23.6483253 40.9511133,23.3060833 C44.0818744,21.0915761 49.2231244,21.7257304 49.8132679,22.4706101 C50.4034114,23.2154898 49.653229,28.3994498 46.7225164,30.8756715 C46.272407,31.2581773 45.8423024,31.0568584 46.0423511,30.5535613 C46.7025116,28.882615 48.1828715,25.1682825 47.4827013,24.2623477 Z" id="Path" fill="#FF9900" fill-rule="nonzero"></path>
    </g>
</svg>