<?xml version="1.0" encoding="UTF-8"?>
<svg xmlns="http://www.w3.org/2000/svg" version="1.1" viewBox="0 0 106 36">
  <defs>
    <style>
      .cls-1 {
        fill-rule: evenodd;
      }

      .cls-1, .cls-2 {
        fill: #1d1d1b;
      }
    </style>
  </defs>
  <!-- Generator: Adobe Illustrator 28.7.0, SVG Export Plug-In . SVG Version: 1.2.0 Build 136)  -->
  <g>
    <g id="Ebene_1">
      <g id="Ebene_1-2" data-name="Ebene_1">
        <g>
          <path class="cls-1" d="M8.1,26.5c4.4,0,8-3.6,8-8s-3.6-8-8-8S.1,14.1.1,18.5s3.6,8,8,8ZM8.1,24.2c3.1,0,5.6-2.5,5.6-5.6s-2.5-5.6-5.6-5.6-5.6,2.5-5.6,5.6,2.5,5.6,5.6,5.6Z"/>
          <path class="cls-2" d="M7.5,15.1c.4.5,1,1,1.6,1.2s1.3.4,2,.3h0c-.4.6-.6,1.2-.7,1.9,0,.7,0,1.4.3,2h0c-.7-.2-1.4-.2-2,0-.7.1-1.3.5-1.8.9h0c0-.7-.2-1.4-.6-2-.3-.6-.8-1.1-1.4-1.5h0c.6-.2,1.2-.6,1.7-1.2.5-.5.8-1.1.9-1.8h0v.2Z"/>
          <path class="cls-2" d="M102.6,17.2c-.3-2.4-2.1-3.7-4.4-3.7s-4.1,1.2-4.6,3.7h9ZM105.7,19.8h-12.1c.4,2.5,2.2,3.7,4.7,3.7s3.4-.7,4.3-2.2l2.6,1.3c-1.3,2.6-4.1,3.9-7,3.9-4.4,0-7.9-3.2-7.9-8s3.5-7.9,7.9-7.9,7.6,3.1,7.6,7.9v1.4h0ZM89.9,11.1l-.6,3c-.7-.3-1.5-.5-2.2-.5-2.8,0-4.1,2.9-4.1,7.1v5.5h-3.2v-15.3h3.2v3.4c.8-2.7,2.3-3.8,4.3-3.8s2.1.2,2.6.5h0ZM74,18.5c0-.6,0-1.3-.3-1.9-.2-.6-.6-1.1-1-1.6-.5-.5-1-.8-1.6-1.1-.6-.2-1.2-.4-1.9-.4-2.6,0-4.7,2-4.7,4.9s2.1,5,4.7,5,4.9-1.9,4.9-5h0ZM77.3,10.9v15.3h-3.2v-2.3c-1,1.7-3.2,2.6-5.3,2.6-4.1,0-7.6-3.1-7.6-8s3.4-8,7.5-8,4.3.9,5.3,2.6v-2.3h3.3ZM60.8,11.1l-.6,3c-.7-.3-1.5-.5-2.2-.5-2.8,0-4.1,2.9-4.1,7.1v5.5h-3.2v-15.3h3.2v3.4c.8-2.7,2.3-3.8,4.3-3.8s2.1.2,2.6.5h0ZM45.5,18.5c0-2.9-2.2-4.9-4.8-4.9s-4.8,2-4.8,4.9,2.2,5,4.8,5,4.8-2,4.8-5h0ZM32.6,18.5c0-4.9,3.7-7.9,8-7.9s8,3.1,8,7.9-3.7,8-8,8-8-3.2-8-8.1h0ZM19.4,21.5h3c0,1.2,1.1,2.3,2.8,2.3s2.8-.8,2.8-2-.8-1.5-2-1.8l-2.1-.5c-2.8-.7-4.1-2.2-4.1-4.5s2.2-4.5,5.4-4.5,5.4,1.4,5.4,4.6h-3.1c0-1.1-1.1-1.9-2.3-1.9s-2.2.8-2.2,1.9.9,1.5,1.8,1.7l2.3.6c3.3.8,4,2.9,4,4.5,0,2.9-2.9,4.6-6,4.6s-5.7-1.8-5.8-5h.1Z"/>
        </g>
      </g>
    </g>
  </g>
</svg>