<?xml version="1.0" encoding="UTF-8"?>
<svg width="68px" height="36px" viewBox="0 0 68 36" version="1.1" xmlns="http://www.w3.org/2000/svg" xmlns:xlink="http://www.w3.org/1999/xlink">
    <title>partner logos/topps_positive</title>
    <defs>
        <polygon id="path-1" points="0 0 44.1063962 0 44.1063962 31.9999145 0 31.9999145"></polygon>
        <polygon id="path-3" points="0 0 25.1263223 0 25.1263223 20.7324281 0 20.7324281"></polygon>
    </defs>
    <g id="Partner-logos" stroke="none" stroke-width="1" fill="none" fill-rule="evenodd">
        <g id="Partner-Bar-1--1140+" transform="translate(-1090, -96)">
            <g id="partner-logos/topps_positive" transform="translate(1090, 96)">
                <rect id="Rectangle" fill-opacity="0" fill="#FFFFFF" opacity="0" x="0" y="0" width="68" height="36"></rect>
                <g id="Group-42" transform="translate(0, 2)">
                    <polygon id="Fill-1" fill="#FEFEFE" points="15.5678819 25.2932749 28.6912699 25.2932749 28.6912699 10.2657971 15.5678819 10.2657971"></polygon>
                    <polygon id="Fill-2" fill="#FEFEFE" points="48.1897331 27.4598525 54.9397621 27.4598525 54.9397621 20.7334545 48.1897331 20.7334545"></polygon>
                    <g id="Group-41">
                        <path d="M5.40233987,31.2107773 C4.05696736,31.2107773 3.36283065,30.6342778 3.01704933,30.150155 C2.05950104,28.8064151 2.71931702,26.7937988 2.79825469,26.5688442 C2.80082874,26.5602908 4.24916343,22.5607185 5.70350425,18.5611462 C6.43024565,16.5605047 7.15870308,14.5598631 7.70869273,13.0595959 C7.9240553,12.4736876 8.09737497,12.0006843 8.24152202,11.6200577 L1.58244293,11.6200577 C1.32246342,11.6200577 1.07792824,11.492612 0.931207131,11.2779215 C0.782769986,11.0640864 0.751023313,10.7912328 0.843689276,10.5491714 L2.6429534,5.86618197 C2.76050189,5.56168074 3.05480213,5.35982038 3.38256507,5.35982038 L8.89275782,5.35982038 C10.4946778,5.35982038 10.9914703,4.16662034 11.0429514,4.03062119 C11.0601117,3.9844328 11.0815622,3.94081044 11.1055867,3.89975409 C11.215413,3.64742863 11.6495702,2.41402758 12.0210921,1.32346841 C12.1300604,1.00357105 12.4312248,0.788880573 12.770142,0.788880573 L18.7204981,0.788880573 C18.9779035,0.788880573 19.2198646,0.913760291 19.3674438,1.12331872 C19.5158809,1.33287715 19.5527757,1.60145408 19.4661159,1.84351545 L18.2048291,5.35982038 L42.5236384,5.35982038 C42.7827599,5.35982038 43.025579,5.48641078 43.1740162,5.69853523 C43.3215953,5.91065968 43.355916,6.18180263 43.2649661,6.423864 L41.5180411,11.1059981 C41.4030667,11.414776 41.1079084,11.6200577 40.7767134,11.6200577 L17.5184146,11.6200577 C15.979988,11.6200577 15.4402946,12.8671442 15.4179861,12.9201753 L11.2231352,24.3235753 C11.1502037,24.5356998 11.1347593,24.7213087 11.1870984,24.8068427 C11.2523078,24.9111943 11.4556581,24.9821875 11.5749227,25.0044264 L21.8290979,25.0044264 C22.0865034,25.0044264 22.3293225,25.1301614 22.4769016,25.3405752 C22.6253388,25.5518443 22.6605175,25.8204213 22.5721417,26.0624826 L20.8827039,30.6924409 C20.7685874,31.0037849 20.4717132,31.2107773 20.1388021,31.2107773 L5.40233987,31.2107773 Z" id="Fill-3" fill="#FEFEFE"></path>
                        <g id="Group-7">
                            <mask id="mask-2" fill="white">
                                <use xlink:href="#path-1"></use>
                            </mask>
                            <g id="Clip-6"></g>
                            <path d="M18.7251314,-8.55340532e-05 L18.7208413,-8.55340532e-05 L12.7704852,-8.55340532e-05 C12.0926508,-8.55340532e-05 11.4903221,0.430150754 11.2715274,1.06994547 C10.966073,1.96805303 10.5936931,3.02953063 10.4341017,3.44864749 C10.3757564,3.54872234 10.3285654,3.65820592 10.2933867,3.77709826 C10.2256033,3.9361916 9.88668608,4.57085427 8.89310103,4.57085427 L3.38205026,4.57085427 C2.72652437,4.57085427 2.13878192,4.97371966 1.90454295,5.5844328 L0.104420812,10.2665669 C-0.0817691325,10.751545 -0.0165597509,11.2972522 0.278598503,11.7257778 C0.573756757,12.1534481 1.0619691,12.4091949 1.58278614,12.4091949 L7.10584916,12.4091949 C7.0603742,12.5315086 7.01404122,12.658099 6.9659922,12.7889661 C6.41600254,14.2900887 5.68668709,16.2907302 4.95908767,18.2922271 C3.50474686,22.2926548 2.05641217,26.2922271 2.05641217,26.2922271 C1.90025286,26.7412809 1.20869021,28.9762857 2.37216286,30.6074201 C2.82519646,31.2429381 3.7192514,31.9999145 5.40268307,31.9999145 L20.1391453,31.9999145 C20.8041094,31.9999145 21.398716,31.5850743 21.6260908,30.9615311 L23.3163866,26.3324281 C23.4922804,25.8491607 23.4210649,25.3094408 23.1250486,24.8877579 C22.8290323,24.4660751 22.3451101,24.2154603 21.8285831,24.2154603 L12.1063791,24.2154603 L16.1536509,13.2149257 C16.2360206,13.0430022 16.6015364,12.4091949 17.5187578,12.4091949 L40.7770566,12.4091949 C41.4377306,12.4091949 42.0297631,11.9994868 42.26057,11.3810756 L44.007495,6.69894152 C44.1876789,6.21396343 44.1190374,5.67253288 43.8230211,5.24828397 C43.5278629,4.82403507 43.0422246,4.57085427 42.5239816,4.57085427 L19.3283181,4.57085427 L20.1837623,2.18530953 C20.2626999,1.99798995 20.3056008,1.79270822 20.3056008,1.57716241 C20.3056008,0.706425746 19.5994519,-8.55340532e-05 18.7251314,-8.55340532e-05 L18.7251314,-8.55340532e-05 Z M18.7208413,1.57716241 L17.0811685,6.14895755 L42.5239816,6.14895755 L40.7770566,10.8310916 L17.5187578,10.8310916 C15.3925887,10.8310916 14.6847237,12.6247407 14.6847237,12.6247407 L10.4804347,24.0520902 C9.93130303,25.6336149 11.5177786,25.7927082 11.5177786,25.7927082 L21.8285831,25.7927082 L20.1391453,30.4218112 L5.40268307,30.4218112 C2.29236717,30.4218112 3.54593173,26.8276703 3.54593173,26.8276703 C3.54593173,26.8276703 9.33583841,10.8310916 9.38646148,10.8310916 L9.38646148,10.8310916 L9.38646148,10.8310916 L1.58278614,10.8310916 L3.38205026,6.14895755 L8.89310103,6.14895755 C11.1351025,6.14895755 11.7863383,4.29971132 11.7863383,4.29971132 C11.8421095,4.29971132 12.7704852,1.57716241 12.7704852,1.57716241 L18.7208413,1.57716241 L18.7208413,1.57716241 Z" id="Fill-5" fill="#FEFEFE" mask="url(#mask-2)"></path>
                        </g>
                        <path d="M42.3561533,31.2107773 C42.0978898,31.2107773 41.8559287,31.0858976 41.7074915,30.8737731 C41.5590544,30.6633593 41.5238756,30.3930717 41.6131095,30.1518657 L43.3094114,25.5227627 C43.4235279,25.2105635 43.7204022,25.0044264 44.0533132,25.0044264 L54.3847101,25.0044264 C54.5305732,24.6135358 54.7991329,23.8984711 55.0273657,23.2911793 L52.9732702,23.2911793 C52.7887963,23.2792045 51.7531684,23.1688656 51.2469376,22.3742542 C51.0358652,22.0432375 50.8471012,21.4821341 51.1431174,20.68068 C51.6630764,19.2676574 53.5687348,13.989351 53.5687348,13.9884957 C53.5867532,13.9405966 53.6082037,13.8944082 53.6356602,13.8507858 C53.6785612,13.7772266 54.7373556,12.0562814 56.8506544,12.0562814 L64.3171286,12.0562814 C64.5771081,12.0562814 64.8207852,12.1837271 64.9683644,12.3975623 C65.1159435,12.6105421 65.1485482,12.8833957 65.0567402,13.1254571 L63.7508366,16.5468192 C63.6332881,16.8530311 63.3389878,17.0548915 63.0103669,17.0548915 C63.0095089,17.0548915 59.0094281,17.03864 59.0094281,17.03864 C58.9450767,17.2216829 58.861849,17.4492035 58.7751891,17.6861328 L61.2188249,17.6861328 C61.2788862,17.6861328 61.3380894,17.6929755 61.3964347,17.706661 C61.5251374,17.7357425 62.1815213,17.9136534 62.5221545,18.5294986 C62.6757398,18.8057735 62.8121647,19.2650914 62.5942281,19.8817919 C62.2741873,20.7747675 59.2676916,28.9372822 59.0274465,29.5907623 C58.9167621,30.0209986 58.4088154,31.2107773 56.1685299,31.2107773 L42.3561533,31.2107773 Z" id="Fill-8" fill="#FEFEFE"></path>
                        <g id="Group-12" transform="translate(40.7734, 11.2676)">
                            <mask id="mask-4" fill="white">
                                <use xlink:href="#path-3"></use>
                            </mask>
                            <g id="Clip-11"></g>
                            <path d="M23.5434832,0 L16.077009,0 C14.0349257,0 12.6681028,1.36940019 12.1824645,2.17855234 C12.1301254,2.26579707 12.0863664,2.35817385 12.0511877,2.45397199 C12.0511877,2.45397199 10.1455293,7.72971239 9.62642832,9.14273495 C9.19827724,10.3025767 9.55521281,11.1365337 9.80575412,11.5299904 C10.5016069,12.6214049 11.8092266,12.7856303 12.064058,12.8070138 C12.1095329,12.8112905 12.1550079,12.8130012 12.1996248,12.8130012 L13.1125562,12.8130012 C13.0953958,12.8591896 13.0782355,12.9036673 13.0619331,12.9472896 L3.27966784,12.9472896 C2.61470375,12.9472896 2.02095517,13.3612745 1.79272233,13.9839624 L0.0964203924,18.6130653 C-0.0811893709,19.0971881 -0.0108318801,19.6369079 0.28604241,20.0585908 C0.582058682,20.481129 1.06598094,20.7325992 1.58250788,20.7325992 L15.3948845,20.7325992 C17.8453845,20.7325992 18.7969266,19.4504437 19.0225854,18.5241099 C19.4181318,17.4498022 22.2504498,9.75943548 22.5644845,8.88356677 C22.8124517,8.18047685 22.7678348,7.47225489 22.4417879,6.88121458 C22.3808686,6.77002031 22.3130851,6.66909013 22.2410116,6.57671335 C22.8965375,6.57500267 23.4834219,6.17128194 23.7168029,5.5605688 L25.0227065,2.13920667 C25.2080385,1.65422859 25.1419711,1.10937667 24.8468128,0.681706404 C24.5507965,0.254891479 24.0643002,0 23.5434832,0 L23.5434832,0 Z M23.5434832,1.57724794 L22.2375795,4.99861007 L17.9088778,4.98064792 C17.9088778,4.98064792 17.6617686,4.98064792 17.6051394,5.16711216 C17.5545163,5.36041912 16.924731,7.04543997 16.924731,7.04543997 C16.924731,7.04543997 16.8964164,7.20709933 17.1418096,7.20709933 L20.4460376,7.20709933 C20.4460376,7.20709933 21.4010118,7.4260665 21.0741069,8.3524003 C20.7420538,9.27787876 17.495313,18.0930183 17.495313,18.0930183 C17.495313,18.0930183 17.3872028,19.1544959 15.3948845,19.1544959 L1.58250788,19.1544959 L3.27966784,14.5253929 L14.0306356,14.5253929 C14.0306356,14.5253929 14.1584803,14.5185502 14.2434241,14.3047151 C14.3240779,14.0848925 15.3948845,11.2348979 15.3948845,11.2348979 L12.1996248,11.2348979 C12.1996248,11.2348979 10.5908408,11.0971881 11.1125158,9.68587619 C11.6324748,8.27114295 13.5407073,2.98855982 13.5407073,2.98855982 C13.5407073,2.98855982 14.3875712,1.57724794 16.077009,1.57724794 L23.5434832,1.57724794 Z" id="Fill-10" fill="#FEFEFE" mask="url(#mask-4)"></path>
                        </g>
                        <path d="M19.9466918,20.1731457 C20.2143935,20.1731457 20.5018296,19.9789586 20.5927795,19.7360419 L21.6112471,16.9313803 C21.6979069,16.6884636 21.5486118,16.493446 21.2809101,16.493446 L18.7549046,16.493446 C18.4863449,16.493446 18.1980508,16.6884636 18.1079589,16.9313803 L17.0869172,19.7360419 C17.0019734,19.9789586 17.1512686,20.1756869 17.4206863,20.1731457 L19.9466918,20.1731457 Z M13.583629,23.8348337 C12.7762339,23.8348337 12.3352126,23.2523468 12.5986241,22.5295841 L15.6377245,14.1481022 C15.9028522,13.4279055 16.7728826,12.8454186 17.5759876,12.8454186 L25.1111033,12.8454186 C25.9167823,12.8454186 26.3595197,13.4279055 26.0961081,14.1481022 L23.0544337,22.5295841 C22.7918801,23.2523468 21.9261398,23.8348337 21.1196027,23.8348337 L13.583629,23.8348337 Z" id="Fill-13" fill="#FEFEFE"></path>
                        <path d="M19.9466918,20.1731457 C20.2143935,20.1731457 20.5018296,19.9789586 20.5927795,19.7360419 L21.6112471,16.9313803 C21.6979069,16.6884636 21.5486118,16.493446 21.2809101,16.493446 L18.7549046,16.493446 C18.4863449,16.493446 18.1980508,16.6884636 18.1079589,16.9313803 L17.0869172,19.7360419 C17.0019734,19.9789586 17.1512686,20.1756869 17.4206863,20.1731457 L19.9466918,20.1731457 Z M13.583629,23.8348337 C12.7762339,23.8348337 12.3352126,23.2523468 12.5986241,22.5295841 L15.6377245,14.1481022 C15.9028522,13.4279055 16.7728826,12.8454186 17.5759876,12.8454186 L25.1111033,12.8454186 C25.9167823,12.8454186 26.3595197,13.4279055 26.0961081,14.1481022 L23.0544337,22.5295841 C22.7918801,23.2523468 21.9261398,23.8348337 21.1196027,23.8348337 L13.583629,23.8348337 Z" id="Stroke-15" stroke="#FEFEFE" stroke-width="1.57588045" stroke-linecap="round" stroke-linejoin="round"></path>
                        <path d="M45.9415538,19.3863787 L46.706906,17.282241 L45.2285407,17.282241 L44.4563244,19.3855234 L45.9415538,19.3863787 Z M35.3724859,31.2106062 C35.1142224,31.2106062 34.8722613,31.0857265 34.7238241,30.8753127 C34.575387,30.664899 34.5402082,30.3946114 34.6285841,30.15255 L41.041412,12.575302 C41.1555284,12.2639581 41.4532607,12.0561103 41.7853138,12.0561103 L51.5598569,12.0561103 C52.2188148,12.0561103 52.7868229,12.3263979 53.1171599,12.7968352 C53.4354846,13.2510211 53.4981199,13.8420614 53.2870475,14.4185609 L50.2410829,22.7983321 C49.8781412,23.8196087 48.7035143,24.6236288 47.5683563,24.6236288 L42.9668048,24.6236288 L40.7239453,30.6914145 C40.6089708,31.0010478 40.3129546,31.2063295 39.9826176,31.2063295 L35.3724859,31.2106062 Z" id="Fill-17" fill="#FEFEFE"></path>
                        <path d="M51.5597711,11.2673153 L41.785228,11.2673153 C41.1202639,11.2673153 40.5256573,11.6821555 40.2982824,12.3056987 L33.8845966,29.8829466 C33.7087028,30.3670694 33.7799183,30.9059339 34.0759346,31.3276168 C34.3728089,31.7492997 34.8558731,31.9999145 35.3724001,31.9999145 L35.3732581,31.9999145 L39.9825318,31.9956378 C40.6457798,31.9956378 41.2378124,31.5833636 41.4669032,30.9632417 L43.5184247,25.412937 L47.5682705,25.412937 C49.0414877,25.412937 50.5121309,24.3993585 50.989189,23.0556185 L54.0317214,14.6861114 C54.3311698,13.8658398 54.2342137,13.01221 53.7657358,12.344189 C53.2852456,11.6599166 52.4812826,11.2673153 51.5597711,11.2673153 L51.5597711,11.2673153 Z M46.0109675,20.1756869 C46.2795272,20.1731209 46.5712534,19.9789586 46.6561972,19.7360419 L47.6763808,16.9313803 C47.7630406,16.6884636 47.6128874,16.493446 47.3434697,16.493446 L44.6758912,16.493446 L43.3236546,20.1731209 L46.0109675,20.1756869 L46.0109675,20.1756869 Z M51.5597711,12.8454186 C52.3654501,12.8454186 52.8064715,13.4279055 52.5430599,14.1481022 L49.4970954,22.5295841 C49.2405479,23.2523468 48.3739496,23.8348337 47.5682705,23.8348337 L42.4150133,23.8348337 L39.9816737,30.4183898 L35.3724001,30.4218112 L41.785228,12.8454186 L51.5597711,12.8454186 Z" id="Fill-19" fill="#FEFEFE"></path>
                        <path d="M31.4650711,19.3855234 L32.9520166,19.384668 L33.7156528,17.282241 L32.2364294,17.282241 L31.4650711,19.3855234 Z M22.3795166,31.2106062 C22.1212531,31.2106062 21.879292,31.0857265 21.7308548,30.8753127 C21.5824177,30.664899 21.5472389,30.3946114 21.6356148,30.15255 L28.0484427,12.575302 C28.1617011,12.2639581 28.4594334,12.0561103 28.7914864,12.0561103 L38.5668876,12.0561103 C39.2292776,12.0561103 39.7981437,12.3281086 40.1284807,12.8002566 C40.4468054,13.2552978 40.5060087,13.8454827 40.2932201,14.4211269 L37.2489716,22.7983321 C36.8851719,23.820464 35.710545,24.6236288 34.576245,24.6236288 L29.9746935,24.6236288 L27.730976,30.6914145 C27.6168596,31.0010478 27.3208433,31.2063295 26.9896483,31.2063295 C26.9896483,31.2063295 22.3795166,31.2106062 22.3795166,31.2106062 L22.3795166,31.2106062 Z" id="Fill-21" fill="#FEFEFE"></path>
                        <path d="M38.567145,11.2673153 L28.7917438,11.2673153 C28.1259217,11.2673153 27.5313151,11.6821555 27.3039403,12.3056987 L20.8919705,29.8829466 C20.7152187,30.3670694 20.7864342,30.9059339 21.0833085,31.3276168 C21.3793248,31.7492997 21.863247,31.9999145 22.378916,31.9999145 L22.380632,31.9999145 L26.9907637,31.9956378 C27.6531537,31.9956378 28.2451863,31.5833636 28.4742771,30.9632417 L30.5257986,25.412937 L34.5765024,25.412937 C36.0480036,25.412937 37.5186468,24.4002138 37.9965629,23.0573292 L41.0390953,14.6852561 C41.3394017,13.8726826 41.2458777,13.0181974 40.7773998,12.3493211 C40.2969096,11.6616273 39.4912305,11.2673153 38.567145,11.2673153 L38.567145,11.2673153 Z M30.3327445,20.1756869 L33.0174834,20.1731209 C33.0191994,20.1731209 33.0209155,20.1731209 33.0226315,20.1731209 C33.2911912,20.1731209 33.5786273,19.9772479 33.6661451,19.7360419 L34.6854707,16.9313803 C34.7712725,16.6884636 34.6194033,16.493446 34.3517017,16.493446 L31.6832651,16.493446 L30.3327445,20.1756869 L30.3327445,20.1756869 Z M38.567145,12.8454186 C39.372824,12.8454186 39.8172775,13.4279055 39.5504338,14.1481022 L36.5053273,22.5295841 C36.2479218,23.2523468 35.3761754,23.8348337 34.5765024,23.8348337 L29.4223872,23.8348337 L26.9890477,30.4183898 L22.378916,30.4218112 L28.7917438,12.8454186 L38.567145,12.8454186 Z" id="Fill-23" fill="#FEFEFE"></path>
                        <path d="M64.0110735,11.5166471 C62.2135254,11.5166471 60.8063756,10.1241527 60.8063756,8.34504437 C60.8063756,6.60870309 62.243556,5.19482519 64.0110735,5.19482519 C65.7743008,5.19482519 67.2089072,6.60870309 67.2089072,8.34504437 C67.2089072,10.1241527 65.8043315,11.5166471 64.0110735,11.5166471" id="Fill-25" fill="#FEFEFE"></path>
                        <path d="M64.0110735,4.40628675 C61.8068248,4.40628675 60.0144248,6.17342029 60.0144248,8.3451299 C60.0144248,10.5288143 61.8068248,12.3053566 64.0110735,12.3053566 C66.2110321,12.3053566 68,10.5288143 68,8.3451299 C68,6.17342029 66.2110321,4.40628675 64.0110735,4.40628675 M63.5082748,8.18432588 L64.0076414,8.18432588 C64.3577128,8.18432588 64.6717475,8.15952101 64.6717475,7.73954881 C64.6717475,7.40083396 64.3611449,7.33753876 64.0762829,7.33753876 L63.5082748,7.33753876 L63.5082748,8.18432588 M64.1380602,6.98941516 C64.7867219,6.98941516 65.1067627,7.22719983 65.1067627,7.7669197 C65.1067627,8.25275313 64.8038823,8.46829894 64.3971817,8.51790869 L65.1745461,9.7188068 L64.7112163,9.7188068 L63.987907,8.53587084 L63.5082748,8.53587084 L63.5082748,9.7188068 L63.0981421,9.7188068 L63.0981421,6.98941516 L64.1380602,6.98941516 M64.0110735,10.3286646 C65.0887443,10.3286646 65.9364663,9.4887202 65.9364663,8.3451299 C65.9364663,7.22719983 65.0887443,6.37955736 64.0110735,6.37955736 C62.9248225,6.37955736 62.0771005,7.22719983 62.0771005,8.3451299 C62.0771005,9.4887202 62.9248225,10.3286646 64.0110735,10.3286646 M64.0110735,5.98439004 C65.3066809,5.98439004 66.4178145,6.98941516 66.4178145,8.3451299 C66.4178145,9.7188068 65.3066809,10.7281086 64.0110735,10.7281086 C62.7086019,10.7281086 61.5966103,9.7188068 61.5966103,8.3451299 C61.5966103,6.98941516 62.7086019,5.98439004 64.0110735,5.98439004" id="Fill-27" fill="#FEFEFE"></path>
                        <path d="M12.7704852,1.57750454 C12.7704852,1.57750454 11.8421095,4.30005346 11.7863383,4.30005346 C11.7863383,4.30005346 11.1351025,6.14844435 8.89310103,6.14844435 L3.38205026,6.14844435 L1.58278614,10.8314338 L9.38646148,10.8314338 C9.33583841,10.8314338 3.54593173,26.8280124 3.54593173,26.8280124 C3.54593173,26.8280124 2.29236717,30.4221533 5.40268307,30.4221533 L20.1391453,30.4221533 L21.8285831,25.7930504 L11.5177786,25.7930504 C11.5177786,25.7930504 9.93130303,25.6331017 10.4804347,24.0524324 L14.6847237,12.6242275 C14.6847237,12.6242275 15.3925887,10.8314338 17.5187578,10.8314338 L40.7770566,10.8314338 L42.5239816,6.14844435 L17.0811685,6.14844435 L18.7208413,1.57750454 L12.7704852,1.57750454 Z" id="Fill-29" fill="#CD171E"></path>
                        <path d="M64.3168712,12.8450764 L63.0109675,16.2664386 L58.6822658,16.2484764 C58.6822658,16.2484764 58.4360146,16.2484764 58.3785273,16.4340853 C58.3287623,16.6282476 57.6981189,18.3132685 57.6981189,18.3132685 C57.6981189,18.3132685 57.6698043,18.4749278 57.9151975,18.4749278 L61.2194255,18.4749278 C61.2194255,18.4749278 62.1743998,18.693895 61.8474948,19.6202288 C61.5154418,20.5457073 58.268701,29.3608468 58.268701,29.3608468 C58.268701,29.3608468 58.1605907,30.4223244 56.1682725,30.4223244 L42.3558958,30.4223244 L44.0530558,25.7932214 L54.8040236,25.7932214 C54.8040236,25.7932214 54.9327263,25.7863787 55.0168121,25.5725436 C55.0974658,25.3527211 56.1682725,22.5027264 56.1682725,22.5027264 L52.9730128,22.5027264 C52.9730128,22.5027264 51.3642287,22.3650166 51.8859038,20.9537047 C52.4058628,19.5381161 54.3140952,14.2563883 54.3140952,14.2563883 C54.3140952,14.2563883 55.1609592,12.8450764 56.850397,12.8450764 L64.3168712,12.8450764 Z" id="Fill-31" fill="#CD171E"></path>
                        <path d="M19.9466918,20.1731457 C20.2143935,20.1731457 20.5018296,19.9789586 20.5927795,19.7360419 L21.6112471,16.9313803 C21.6979069,16.6884636 21.5486118,16.493446 21.2809101,16.493446 L18.7549046,16.493446 C18.4863449,16.493446 18.1980508,16.6884636 18.1079589,16.9313803 L17.0869172,19.7360419 C17.0019734,19.9789586 17.1512686,20.1756869 17.4206863,20.1731457 L19.9466918,20.1731457 Z M13.583629,23.8348337 C12.7762339,23.8348337 12.3352126,23.2523468 12.5986241,22.5295841 L15.6377245,14.1481022 C15.9028522,13.4279055 16.7728826,12.8454186 17.5759876,12.8454186 L25.1111033,12.8454186 C25.9167823,12.8454186 26.3595197,13.4279055 26.0961081,14.1481022 L23.0544337,22.5295841 C22.7918801,23.2523468 21.9261398,23.8348337 21.1196027,23.8348337 L13.583629,23.8348337 Z" id="Fill-33" fill="#CD171E"></path>
                        <path d="M43.323912,20.1731209 L46.0112249,20.1756869 C46.2789266,20.1731209 46.5706527,19.9789586 46.6564546,19.7360419 L47.6757802,16.9313803 C47.763298,16.6884636 47.6131448,16.493446 47.3437271,16.493446 L44.6752906,16.493446 L43.323912,20.1731209 Z M42.4152707,23.8348337 L39.9819311,30.4183898 L35.3726575,30.4218112 L41.7854854,12.8454186 L51.5600285,12.8454186 C52.3657075,12.8454186 52.8067289,13.4279055 52.5433173,14.1481022 L49.4964947,22.5295841 C49.2408053,23.2523468 48.374207,23.8348337 47.5676699,23.8348337 L42.4152707,23.8348337 Z" id="Fill-35" fill="#CD171E"></path>
                        <path d="M30.3325729,20.1756869 L33.0173118,20.1731209 C33.2867295,20.1756869 33.5775977,19.9789586 33.6659735,19.7360419 L34.6852991,16.9313803 C34.7711009,16.6884636 34.6200897,16.493446 34.35153,16.493446 L31.6830935,16.493446 L30.3325729,20.1756869 Z M29.4222156,23.8348337 L26.988876,30.4183898 L22.3787444,30.4218112 L28.7915722,12.8454186 L38.5669734,12.8454186 C39.3735105,12.8454186 39.8171059,13.4279055 39.5511202,14.1481022 L36.5051557,22.5295841 C36.2477502,23.2523468 35.3760038,23.8348337 34.5763308,23.8348337 L29.4222156,23.8348337 Z" id="Fill-37" fill="#CD171E"></path>
                        <path d="M64.0077272,8.18424035 C64.3577986,8.18424035 64.6709753,8.15943548 64.6709753,7.73946327 C64.6709753,7.40074842 64.3612307,7.33745322 64.0763687,7.33745322 L63.5083606,7.33745322 L63.5083606,8.18424035 L64.0077272,8.18424035 Z M63.5083606,9.71872127 L63.0982279,9.71872127 L63.0982279,6.98932963 L64.138146,6.98932963 C64.7868077,6.98932963 65.1068485,7.22711429 65.1068485,7.76683417 C65.1068485,8.25352293 64.8039681,8.46821341 64.3972675,8.51782316 L65.1746319,9.71872127 L64.7113021,9.71872127 L63.9879928,8.53578531 L63.5083606,8.53578531 L63.5083606,9.71872127 Z M64.0111593,10.3285791 C65.0888301,10.3285791 65.9365521,9.48863466 65.9365521,8.34504437 C65.9365521,7.22711429 65.0888301,6.38032717 64.0111593,6.38032717 C62.9249083,6.38032717 62.0771863,7.22711429 62.0771863,8.34504437 C62.0771863,9.48863466 62.9249083,10.3285791 64.0111593,10.3285791 L64.0111593,10.3285791 Z M61.5966961,8.34504437 C61.5966961,6.98932963 62.7086877,5.9843045 64.0111593,5.9843045 C65.3067667,5.9843045 66.4179003,6.98932963 66.4179003,8.34504437 C66.4179003,9.71872127 65.3067667,10.7280231 64.0111593,10.7280231 C62.7086877,10.7280231 61.5966961,9.71872127 61.5966961,8.34504437 L61.5966961,8.34504437 Z" id="Fill-39" fill="#CD171E"></path>
                    </g>
                </g>
            </g>
        </g>
    </g>
</svg>